<?xml version="1.0" standalone="no"?><!DOCTYPE svg PUBLIC "-//W3C//DTD SVG 1.1//EN" "http://www.w3.org/Graphics/SVG/1.1/DTD/svg11.dtd"><svg t="1570414110687" class="icon" viewBox="0 0 1024 1024" version="1.1" xmlns="http://www.w3.org/2000/svg" p-id="7596" xmlns:xlink="http://www.w3.org/1999/xlink" width="200" height="200"><defs><style type="text/css"></style></defs><path d="M860.16 0 163.84 0C73.728 0 0 73.728 0 163.84l0 696.32c0 90.112 73.728 163.84 163.84 163.84l696.32 0c90.112 0 163.84-73.728 163.84-163.84L1024 163.84C1024 73.728 950.272 0 860.16 0zM797.696 329.728c-1.024 2.048-55.296 175.104-109.568 316.416-21.504 57.344-39.936 98.304-64.512 123.904-22.528 24.576-50.176 36.864-87.04 36.864 0 0-1.024 0-1.024 0-26.624 2.048-59.392-13.312-59.392-13.312l-185.344-83.968c0 0-87.04-27.648-61.44-141.312l252.928 101.376c0 0-10.24 100.352 69.632 89.088 0 0 0 0 0 0 16.384-3.072 27.648-9.216 38.912-21.504 19.456-21.504 35.84-59.392 55.296-110.592 41.984-109.568 83.968-238.592 100.352-290.816l-284.672-56.32-100.352 274.432c-4.096 11.264-17.408 17.408-28.672 13.312-11.264-4.096-17.408-17.408-13.312-28.672l106.496-292.864c4.096-10.24 14.336-16.384 25.6-14.336l327.68 65.536c6.144 1.024 11.264 5.12 14.336 10.24C798.72 317.44 799.744 323.584 797.696 329.728zM620.544 502.784c11.264 4.096 18.432 16.384 14.336 27.648-3.072 9.216-11.264 15.36-21.504 15.36-2.048 0-5.12 0-7.168-1.024l-96.256-31.744c-11.264-4.096-18.432-16.384-14.336-27.648 4.096-11.264 16.384-18.432 27.648-14.336L620.544 502.784zM534.528 395.264c3.072-12.288 15.36-18.432 27.648-15.36l97.28 26.624c12.288 3.072 18.432 15.36 15.36 27.648-3.072 10.24-11.264 16.384-21.504 16.384-2.048 0-4.096 0-6.144-1.024l-97.28-26.624C537.6 419.84 530.432 407.552 534.528 395.264zM598.016 620.544c-3.072 9.216-11.264 15.36-21.504 15.36-2.048 0-5.12 0-7.168-1.024l-96.256-31.744c-11.264-4.096-18.432-16.384-14.336-27.648 4.096-11.264 16.384-18.432 27.648-14.336l96.256 31.744C594.944 595.968 602.112 609.28 598.016 620.544zM512 386.048c-2.048 10.24-11.264 17.408-21.504 17.408-1.024 0-3.072 0-5.12 0l-1.024 0c-1.024 0-2.048 0-2.048 0-12.288-3.072-19.456-14.336-17.408-26.624 3.072-12.288 14.336-19.456 26.624-17.408 1.024 0 1.024 0 2.048 0l1.024 0C506.88 362.496 514.048 373.76 512 386.048zM477.184 478.208c-2.048 10.24-11.264 17.408-21.504 17.408-1.024 0-3.072 0-5.12 0l-1.024 0c-1.024 0-2.048 0-2.048 0-12.288-3.072-19.456-14.336-17.408-26.624 3.072-12.288 14.336-19.456 26.624-17.408 1.024 0 1.024 0 2.048 0l1.024 0C472.064 453.632 480.256 465.92 477.184 478.208zM442.368 563.2c-2.048 10.24-11.264 17.408-21.504 17.408-1.024 0-3.072 0-5.12 0l-1.024 0c-1.024 0-2.048 0-2.048 0-12.288-3.072-19.456-14.336-17.408-26.624 3.072-12.288 14.336-19.456 26.624-17.408 1.024 0 1.024 0 2.048 0l1.024 0C437.248 539.648 444.416 550.912 442.368 563.2z" p-id="7597"></path></svg>