<svg xmlns="http://www.w3.org/2000/svg" width="15.192" height="17.04" viewBox="0 0 15.192 17.04">
  <g id="content" transform="translate(0)">
    <path id="路径_366" data-name="路径 366" class="cls-1" d="M393.944,71.68h-3.9a.924.924,0,0,0,0,1.848h3.9a.924.924,0,1,0,0-1.848Z" transform="translate(-384.296 -71.68)"/>
    <path id="路径_367" data-name="路径 367" class="cls-1" d="M162.235,122.88h-2.258v.185a1.244,1.244,0,0,1-1.252,1.252h-5.3a1.244,1.244,0,0,1-1.252-1.252.569.569,0,0,1,.021-.185h-2.279a1.428,1.428,0,0,0-1.437,1.437v13.139a1.428,1.428,0,0,0,1.437,1.437h12.318a1.428,1.428,0,0,0,1.437-1.437V124.317A1.428,1.428,0,0,0,162.235,122.88Zm-2.361,11.7h-7.8a.513.513,0,1,1,0-1.026h7.8a.508.508,0,0,1,.513.513A.521.521,0,0,1,159.874,134.582Zm0-3.079h-7.8a.513.513,0,1,1,0-1.026h7.8a.508.508,0,0,1,.513.513A.521.521,0,0,1,159.874,131.5Zm0-3.079h-7.8a.513.513,0,1,1,0-1.026h7.8a.508.508,0,0,1,.513.513A.521.521,0,0,1,159.874,128.423Z" transform="translate(-148.48 -121.854)"/>
  </g>
</svg>
