<svg xmlns="http://www.w3.org/2000/svg" width="128" height="128" viewBox="0 0 15 14.802">
  <g id="gift" transform="translate(0 0)">
    <path id="路径_362" data-name="路径 362" class="cls-1" d="M0,195.731m.479,0H14.521q.479,0,.479.434v1.062q0,.434-.479.434H.479q-.479,0-.479-.434v-1.062q0-.434.479-.434Z" transform="translate(0 -192.857)"/>
    <path id="路径_363" data-name="路径 363" class="cls-1" d="M183.686,4.519c-.083-.111-.163-.228-.237-.349-.945-1.536-.843-3.257.232-3.918a1.989,1.989,0,0,1,1.932,0,4.065,4.065,0,0,1,1.67,1.562,4.62,4.62,0,0,1,.368.737c.028.071.054.143.077.215l-.814.269q-.029-.087-.062-.172a3.761,3.761,0,0,0-.3-.6,3.2,3.2,0,0,0-1.3-1.235A1.214,1.214,0,0,0,184.13.982c-.573.353-.69,1.537.049,2.738.061.1.126.194.194.285Z" transform="translate(-180.017 -0.001)"/>
    <path id="路径_364" data-name="路径 364" class="cls-1" d="M481.785,4.519c.083-.111.163-.228.237-.349.945-1.536.843-3.257-.232-3.918a1.989,1.989,0,0,0-1.932,0,4.067,4.067,0,0,0-1.67,1.562,4.631,4.631,0,0,0-.368.737c-.028.071-.054.143-.078.215l.814.269c.019-.058.04-.116.062-.172a3.776,3.776,0,0,1,.3-.6,3.2,3.2,0,0,1,1.3-1.235,1.214,1.214,0,0,1,1.118-.043c.573.353.69,1.537-.049,2.738-.06.1-.126.194-.194.285Z" transform="translate(-470.463 -0.001)"/>
    <path id="路径_365" data-name="路径 365" class="cls-1" d="M26.173,411.095m1.154,0H39.334q1.154,0,1.154,1.04v5.939q0,1.04-1.154,1.04H27.327q-1.154,0-1.154-1.04v-5.939Q26.173,411.095,27.327,411.095Z" transform="translate(-25.831 -404.312)"/>
  </g>
</svg>
