<?xml version="1.0" standalone="no"?><!DOCTYPE svg PUBLIC "-//W3C//DTD SVG 1.1//EN" "http://www.w3.org/Graphics/SVG/1.1/DTD/svg11.dtd"><svg t="1570407283239" class="icon" viewBox="0 0 1024 1024" version="1.1" xmlns="http://www.w3.org/2000/svg" p-id="2778" xmlns:xlink="http://www.w3.org/1999/xlink" width="200" height="200"><path d="M933.3 400L832 315V192.4c0-35.4-29-64.4-64.4-64.4-35.4 0-64.4 29-64.4 64.4v14.5L552 80.1c-3.7-3.1-7.7-5.7-11.8-7.8-0.4-0.2-0.9-0.4-1.3-0.7-0.2-0.1-0.5-0.2-0.7-0.4-22-10.5-49.1-8-68.8 8.6L87.6 400.2c-26.9 22.6-30.5 63.1-7.9 90.1 20.2 24.1 54.8 29.5 81.2 14.1v391.7c0 34.9 28.6 63.5 63.5 63.5H797c34.9 0 63.5-28.6 63.5-63.5V504.4c26.3 15 60.6 9.6 80.7-14.4 22.5-26.9 19-67.4-7.9-90z m-199.9 6.5v425.2H607.5V608.3c0-53.1-43.4-96.5-96.5-96.5s-96.5 43.4-96.5 96.5v223.4H287.9V399l222.6-186.8 223.3 187.4c-0.2 2.2-0.4 4.5-0.4 6.9z" p-id="2779"></path></svg>