<?xml version="1.0" standalone="no"?><!DOCTYPE svg PUBLIC "-//W3C//DTD SVG 1.1//EN" "http://www.w3.org/Graphics/SVG/1.1/DTD/svg11.dtd"><svg t="1571887364167" class="icon" viewBox="0 0 1024 1024" version="1.1" xmlns="http://www.w3.org/2000/svg" p-id="4219" xmlns:xlink="http://www.w3.org/1999/xlink" width="200" height="200"><defs><style type="text/css"></style></defs><path d="M511.484391 0C408.362538 24.749245 2.062437 339.270896 2.062437 359.895267v571.295065c0 50.529708 41.248741 91.778449 91.778449 91.778449h835.287009c50.529708 0 91.778449-41.248741 91.778449-91.778449V359.895267C1021.937563 349.583082 615.637462 0 511.484391 0z m383.613293 556.858006L608.418933 781.663646c-26.811682 25.780463-61.873112 39.186304-96.934542 39.186304-35.06143 0-70.12286-13.405841-96.934542-39.186304L128.902316 556.858006c-18.561934-15.468278-22.686808-42.27996-7.218529-61.873112 15.468278-18.561934 42.27996-22.686808 61.873111-7.218529l290.803626 227.899295 2.062437 2.062437c20.624371 20.624371 53.623364 20.624371 73.216515 0l4.124874-3.093656 288.741189-226.868076c18.561934-14.437059 46.404834-11.343404 61.873112 7.218529 13.405841 18.561934 10.312185 46.404834-9.280967 61.873112z" p-id="4220"></path></svg>