<?xml version="1.0" standalone="no"?><!DOCTYPE svg PUBLIC "-//W3C//DTD SVG 1.1//EN" "http://www.w3.org/Graphics/SVG/1.1/DTD/svg11.dtd"><svg t="1570412021342" class="icon" viewBox="0 0 1096 1024" version="1.1" xmlns="http://www.w3.org/2000/svg" p-id="11155" xmlns:xlink="http://www.w3.org/1999/xlink" width="214.0625" height="200"><defs><style type="text/css"></style></defs><path d="M849.213793 0h-847.448276v776.827586l180.082759-211.862069h667.365517V0z m-670.896552 353.103448a70.62069 70.62069 0 1 1 70.62069-70.620689 70.62069 70.62069 0 0 1-70.62069 70.620689z m247.172414 0a70.62069 70.62069 0 1 1 70.62069-70.620689 70.62069 70.62069 0 0 1-70.62069 70.620689z m247.172414 0a70.62069 70.62069 0 1 1 70.62069-70.620689 70.62069 70.62069 0 0 1-70.62069 70.620689z m247.172414-176.551724v459.034483h-670.896552v176.551724h667.365517l180.082759 211.862069V176.551724h-176.551724z" p-id="11156"></path></svg>