<?xml version="1.0" standalone="no"?><!DOCTYPE svg PUBLIC "-//W3C//DTD SVG 1.1//EN" "http://www.w3.org/Graphics/SVG/1.1/DTD/svg11.dtd"><svg t="1570412711418" class="icon" viewBox="0 0 1024 1024" version="1.1" xmlns="http://www.w3.org/2000/svg" p-id="19519" xmlns:xlink="http://www.w3.org/1999/xlink" width="200" height="200"><defs><style type="text/css"></style></defs><path d="M0.1 0h1024v1023.8H0.1z" fill="#FFFFFF" p-id="19520"></path><path d="M512.1 1012.1c-67.5 0-133-13.2-194.7-39.3-59.6-25.2-113.1-61.3-159-107.2-45.9-45.9-82-99.4-107.2-159C25.1 645 11.9 579.4 11.9 511.9s13.2-133 39.3-194.7c25.2-59.6 61.3-113.1 107.2-159s99.4-82 159-107.2c61.7-26.1 127.2-39.3 194.7-39.3s133 13.2 194.7 39.3c59.6 25.2 113.1 61.3 159 107.2 45.9 45.9 82 99.4 107.2 159 26.1 61.7 39.3 127.2 39.3 194.7S999.1 645 973 706.6c-25.2 59.6-61.3 113.1-107.2 159-45.9 45.9-99.4 82-159 107.2-61.6 26.1-127.2 39.3-194.7 39.3z m0-956.1c-61.5 0-121.3 12-177.5 35.8-54.3 23-103.1 55.8-144.9 97.7S114.9 280.2 92 334.4c-23.8 56.2-35.8 115.9-35.8 177.5 0 61.6 12.1 121.3 35.8 177.5 23 54.3 55.8 103.1 97.7 144.9s90.6 74.8 144.9 97.7c56.2 23.8 115.9 35.8 177.5 35.8s121.3-12.1 177.5-35.8c54.3-23 103.1-55.8 144.9-97.7 41.9-41.9 74.8-90.6 97.7-144.9C956 633.2 968 573.5 968 511.9c0-61.6-12.1-121.3-35.8-177.5-23-54.3-55.8-103.1-97.7-144.9-41.9-41.9-90.6-74.8-144.9-97.7C633.4 68 573.7 56 512.1 56z" fill="" p-id="19521"></path><path d="M827.9 251.2c-7.7-7.7-18.2-12-29-12H539.4v-27.3c0-15-12.2-27.3-27.3-27.3-15.2 0-27.3 12.2-27.3 27.3v27.4H225.4c-10.9 0-21.3 4.2-29 12-7.7 7.7-12 18.2-12 29V649c0 10.9 4.3 21.3 12 29 7.7 7.7 18.2 12 29 12h259.4v27.3h0.8l-116.3 72.8c-5.6 4.6-9 11.4-9.7 18.6-0.6 7.2 1.6 14.4 6.2 20s11.4 9 18.6 9.7c7.2 0.6 14.4-1.7 19.9-6.3l110.8-69.5L623 832.5c11.4 9.9 28.6 8.8 38.6-2.6 9.9-11.4 8.6-28.6-2.7-38.6l-116.7-75.9c-0.9-0.8-1.8-1.4-2.7-2.1v-23.4h259.4c10.9 0 21.3-4.2 29-11.9 7.7-7.7 12-18.2 12-29V280.2c0-10.9-4.3-21.3-12-29z m-92.4 198.5L621.9 553.4c-2.9 2.7-6.4 4.7-10.2 5.8-8.3 4.6-18.4 4.4-26.6-0.3l-172.9-99.8-75.5 83.9c-4.7 5.4-11.4 8.5-18.6 8.7-7.1 0.2-14-2.6-19-7.8-10.6-10.6-11.1-28.4-1.1-39.5l85.1-94.7c3.7-4.2 8.6-7 14-8.2 8.2-4.1 17.8-3.8 25.8 0.7l173.6 100.3 103.7-94.7c5.2-4.9 12.2-7.4 19.4-6.9 7.1 0.5 13.8 3.9 18.2 9.4 9.9 11.6 8.9 29.2-2.3 39.4z" fill="" p-id="19522"></path></svg>