<?xml version="1.0" standalone="no"?><!DOCTYPE svg PUBLIC "-//W3C//DTD SVG 1.1//EN" "http://www.w3.org/Graphics/SVG/1.1/DTD/svg11.dtd"><svg t="1570412549241" class="icon" viewBox="0 0 1024 1024" version="1.1" xmlns="http://www.w3.org/2000/svg" p-id="15266" xmlns:xlink="http://www.w3.org/1999/xlink" width="200" height="200"><defs><style type="text/css"></style></defs><path d="M511.472 79.844c-238.206 0-432 193.794-432 432 0 238.205 193.794 432 432 432s432-193.795 432-432c0-238.206-193.794-432-432-432zM303.048 415.215c-3.569 33.686-5.306 65.342-5.306 96.66 0.358 33.943 2.144 66.42 5.31 96.612-49.266-11.584-90.945-27.356-120.732-45.708-27.729-17.084-43-35.173-43-50.936 0.001-27.929 51.272-69.848 163.728-96.628z m361.944 96.628c0 36.438-2.309 72.862-6.864 108.308-45.514 6.896-94.84 10.391-146.656 10.391-51.813 0-101.141-3.495-146.659-10.391-4.554-35.451-6.861-71.876-6.861-108.308 0-36.431 2.308-72.856 6.861-108.307 45.497-6.899 94.823-10.396 146.659-10.396 51.839 0 101.165 3.497 146.656 10.396 4.556 35.443 6.864 71.867 6.864 108.307z m45.419-159.418c-10.133-52.602-24.331-98.788-42.205-137.288-8.914-19.362-18.703-37.09-29.161-52.823 54.206 19.817 103.657 52.467 143.481 94.813 40.308 42.862 70.024 94.901 86.245 150.914-39.429-23.275-93.932-42.43-158.36-55.616z m-198.939-19.128c-44.785 0-91.633 3.038-135.787 8.794 8.659-38.208 19.865-72.572 33.329-102.198 29.01-63.679 66.355-100.201 102.458-100.201 36.105 0 73.448 36.521 102.452 100.199 13.606 29.93 24.816 64.296 33.343 102.201-44.157-5.758-91.007-8.795-135.795-8.795z m-156.733-118.16c-18.588 40.394-32.789 86.576-42.22 137.291-64.423 13.186-118.919 32.34-158.346 55.613 16.221-56.013 45.937-108.053 86.244-150.914 39.823-42.347 89.275-74.997 143.482-94.813-10.466 15.743-20.254 33.47-29.16 52.823z m-42.206 456.125c10.136 52.607 24.334 98.794 42.206 137.288 8.905 19.351 18.693 37.078 29.161 52.824-54.207-19.817-103.66-52.467-143.482-94.813-40.299-42.854-70.013-94.885-86.235-150.886 39.513 23.481 92.726 42.163 158.35 55.587z m198.939 19.128c44.789 0 91.636-3.037 135.786-8.794-8.665 38.223-19.872 72.588-33.333 102.198-29.005 63.679-66.348 100.2-102.453 100.2-36.103 0-73.448-36.521-102.457-100.198-13.612-29.951-24.82-64.315-33.339-102.205 45.028 5.84 90.688 8.799 135.796 8.799z m127.572 170.983c10.46-15.734 20.249-33.463 29.171-52.843 18.227-40.388 32.419-86.56 42.196-137.269 65.619-13.424 118.832-32.106 158.352-55.588-16.223 56.001-45.937 108.032-86.236 150.887-39.825 42.347-89.277 74.997-143.483 94.813z m80.852-252.901c3.569-33.698 5.306-65.352 5.306-96.661-0.357-33.936-2.144-66.414-5.31-96.61 49.265 11.583 90.944 27.355 120.73 45.705 27.729 17.083 43 35.173 43 50.937 0.001 27.929-51.27 69.847-163.726 96.629z" p-id="15267"></path></svg>