<?xml version="1.0" standalone="no"?><!DOCTYPE svg PUBLIC "-//W3C//DTD SVG 1.1//EN" "http://www.w3.org/Graphics/SVG/1.1/DTD/svg11.dtd"><svg t="1570413885625" class="icon" viewBox="0 0 1024 1024" version="1.1" xmlns="http://www.w3.org/2000/svg" p-id="7477" xmlns:xlink="http://www.w3.org/1999/xlink" width="200" height="200"><defs><style type="text/css"></style></defs><path d="M996.9664 500.5312L910.1312 413.696c-11.8784-11.8784-31.5392-11.8784-43.4176 0-11.8784 11.8784-11.8784 31.5392 0 43.4176l34.4064 34.4064h-110.592c10.6496-20.8896 19.6608-41.7792 26.624-62.2592 29.9008-86.016 22.1184-157.2864-20.8896-200.704-43.4176-43.4176-114.688-50.7904-200.704-20.8896-17.6128 6.144-35.6352 13.5168-53.248 22.528V129.024l34.4064 34.4064c11.8784 11.8784 31.5392 11.8784 43.4176 0 11.8784-11.8784 11.8784-31.5392 0-43.4176L533.2992 33.1776c-11.8784-11.8784-31.5392-11.8784-43.4176 0L403.0464 120.0128c-11.8784 11.8784-11.8784 31.5392 0 43.4176 11.8784 11.8784 31.5392 11.8784 43.4176 0l34.4064-34.4064v103.2192c-19.2512-9.8304-38.5024-18.0224-57.344-24.576-86.016-29.9008-157.2864-22.1184-200.704 20.8896-43.4176 43.4176-50.7904 114.688-20.8896 200.704 6.9632 20.48 15.9744 41.3696 26.624 62.2592H122.88l34.4064-34.4064c11.8784-11.8784 11.8784-31.5392 0-43.4176-11.8784-11.8784-31.5392-11.8784-43.4176 0L27.0336 500.5312c-11.8784 11.8784-11.8784 31.5392 0 43.4176L113.8688 630.784c11.8784 11.8784 31.5392 11.8784 43.4176 0 11.8784-11.8784 11.8784-31.5392 0-43.4176L122.88 552.96h99.1232c-7.7824 16.384-14.7456 32.768-20.0704 48.7424-29.9008 86.016-22.1184 157.2864 20.8896 200.704 25.8048 25.8048 61.44 38.912 104.448 38.912 29.0816 0 61.44-6.144 96.256-18.0224 18.432-6.144 36.864-14.336 55.296-23.3472v95.0272l-34.4064-34.4064c-11.8784-11.8784-31.5392-11.8784-43.4176 0-11.8784 11.8784-11.8784 31.5392 0 43.4176l86.8352 86.8352c11.8784 11.8784 31.5392 11.8784 43.4176 0l86.8352-86.8352c11.8784-11.8784 11.8784-31.5392 0-43.4176-11.8784-11.8784-31.5392-11.8784-43.4176 0l-34.4064 34.4064v-95.0272c18.8416 9.4208 37.2736 17.2032 55.296 23.3472 34.816 11.8784 67.1744 18.0224 96.256 18.0224 43.008 0 78.6432-13.1072 104.448-38.912 43.4176-43.4176 50.7904-114.688 20.8896-200.704-5.7344-15.9744-12.288-32.3584-20.0704-48.7424H901.12l-34.4064 34.4064c-11.8784 11.8784-11.8784 31.5392 0 43.4176 11.8784 11.8784 31.5392 11.8784 43.4176 0l86.8352-86.8352c11.8784-11.8784 11.8784-31.5392 0-43.4176z m-483.328 208.0768c-1.2288 0-2.8672-0.4096-4.096-0.4096-1.2288 0-2.8672 0-4.096 0.4096-33.9968-22.9376-69.2224-51.2-103.2192-85.6064-34.4064-34.4064-64.3072-70.4512-88.4736-107.3152 24.1664-36.864 54.0672-72.9088 88.4736-107.3152 35.6352-35.6352 72.0896-65.1264 107.3152-88.4736 35.2256 23.3472 71.68 52.8384 107.3152 88.4736s65.1264 72.0896 88.4736 107.3152c-23.3472 35.2256-52.8384 71.68-88.4736 107.3152-34.4064 33.9968-69.2224 62.6688-103.2192 85.6064z m178.176-456.704c26.2144 0 47.5136 6.9632 61.0304 20.48 31.1296 31.1296 26.624 101.5808-13.9264 184.32-22.9376-31.5392-49.5616-62.6688-78.6432-91.7504-29.4912-29.4912-60.2112-55.7056-91.7504-78.6432 46.2848-23.3472 89.2928-34.4064 123.2896-34.4064zM266.24 272.384c13.5168-13.5168 34.816-20.48 61.0304-20.48 33.9968 0 76.5952 11.4688 123.2896 34.4064-31.5392 22.9376-62.6688 49.5616-91.7504 78.6432-29.4912 29.4912-55.7056 60.6208-79.0528 92.16-7.7824-15.9744-14.7456-31.9488-20.0704-47.5136-21.2992-62.2592-18.8416-112.2304 6.5536-137.216z m61.0304 507.0848c-26.2144 0-47.5136-6.9632-61.0304-20.48-25.3952-25.3952-27.4432-75.3664-6.144-137.216 5.3248-15.5648 12.288-31.5392 20.0704-47.5136 22.9376 31.5392 49.5616 62.6688 79.0528 92.16 29.4912 29.4912 60.2112 55.7056 91.7504 78.6432-47.104 22.9376-89.7024 34.4064-123.6992 34.4064z m425.5744-20.48c-31.1296 31.1296-101.5808 26.624-184.32-13.9264 31.5392-22.9376 62.6688-49.5616 91.7504-78.6432 29.4912-29.4912 55.7056-60.2112 78.6432-91.7504 40.5504 82.7392 45.056 153.1904 13.9264 184.32z" fill="#231815" p-id="7478"></path></svg>