<?xml version="1.0" standalone="no"?><!DOCTYPE svg PUBLIC "-//W3C//DTD SVG 1.1//EN" "http://www.w3.org/Graphics/SVG/1.1/DTD/svg11.dtd"><svg t="1570411570417" class="icon" viewBox="0 0 1036 1024" version="1.1" xmlns="http://www.w3.org/2000/svg" p-id="8499" xmlns:xlink="http://www.w3.org/1999/xlink" width="202.34375" height="200"><defs><style type="text/css"></style></defs><path d="M0 0l0 0 0 0zM887.994907 960.13811l-575.042605 0 0-59.412559 460.462959 0q14.869247 0 28.110502-7.943791t21.218702-21.761046 7.943791-29.70676l0-594.122706 57.307613 0 0 712.947824zM282.226243 781.901395q-12.730644 0-21.218702-9.030401t-8.488058-21.218702 8.488058-20.675397 21.218702-8.488058l404.208299 0q12.730644 0 20.675397 8.488058t7.943791 21.218702q0 7.435104-3.699282 14.326903t-10.082393 11.136309-14.869247 4.24451l-404.208299 0zM282.226243 544.251158l404.208299 0q12.730644 0 20.675397 8.488058t7.943791 21.218702q0 6.383112-2.138602 11.678652t-5.839807 9.030401-9.030401 6.383112-11.678652 2.647289l-404.208299 0q-8.488058 0-14.869247-4.24451t-10.625698-11.136309-4.24451-14.326903q0-12.730644 8.488058-21.218702t21.218702-8.488058zM282.226243 366.015404l404.208299 0q12.730644 0 20.675397 8.488058t7.943791 20.675397-7.943791 21.218702-20.675397 9.030401l-404.208299 0q-12.730644 0-21.218702-9.030401t-8.488058-21.218702 8.488058-20.675397 21.218702-8.488058zM454.080808 187.777727l232.352773 0q12.730644 0 20.675397 8.488058t7.943791 20.675397-7.943791 21.218702-20.675397 9.030401l-232.352773 0q-5.296502 0-10.625698-2.647289t-9.54005-6.383112-6.383112-9.030401-2.138602-11.678652q0-22.271656 20.16671-28.653806 5.296502-1.051992 8.488058-1.051992zM887.994907 187.777727l-57.307613 0 0-59.412559q0-24.410258-16.974193-41.8941t-40.332459-17.518459l-576.096521 0q-23.357305 0-40.332459 17.518459t-16.974193 41.8941l0 712.947824q0 24.410258 16.974193 41.8941t40.332459 17.518459l58.359605 0 0 59.412559q0 24.410258 16.431849 41.8941t40.842108 17.518459l575.042605 0q11.678652 0 22.271656-4.786853t18.571413-12.730644 12.188301-19.113756 4.24451-22.814l0-712.947824q0-12.730644-4.24451-23.357305t-12.188301-18.571413-18.571413-12.730644-22.271656-4.786853z" p-id="8500"></path></svg>