<svg id="shop" xmlns="http://www.w3.org/2000/svg" width="15" height="14.684" viewBox="0 0 15 14.684">
  <path id="路径_368" data-name="路径 368" class="cls-1" d="M79.588,78.43a.183.183,0,0,0,0-.022.462.462,0,0,0-.028-.09L78.288,75.2A1.594,1.594,0,0,0,76.7,74.157H67.8a1.541,1.541,0,0,0-1.539,1.013L64.9,78.35a.68.68,0,0,0-.019.075,2.916,2.916,0,0,0,1.428,3.509,2.962,2.962,0,0,0,1.4.318h0a2.975,2.975,0,0,0,2.27-1.046,2.955,2.955,0,0,0,4.506,0,3.069,3.069,0,0,0,3.7.709,2.932,2.932,0,0,0,1.549-2.581A2.867,2.867,0,0,0,79.588,78.43Zm-3.15.521H67.784a.534.534,0,1,1,0-1.068h8.654a.534.534,0,1,1,0,1.068Z" transform="translate(-64.733 -74.157)"/>
  <path id="路径_369" data-name="路径 369" class="cls-1" d="M132.651,565.682a.513.513,0,0,0-.157.031,3.411,3.411,0,0,1-1.3.22,3.314,3.314,0,0,1-2.135-.739,3.541,3.541,0,0,1-2.251.823,3.488,3.488,0,0,1-2.27-.737,3.5,3.5,0,0,1-2.277.781h0a3.269,3.269,0,0,1-1.286-.269.38.38,0,0,0-.04-.014l-.064-.023a.975.975,0,0,0-.121-.013h0a.538.538,0,0,0-.542.535l0,3.854a1.38,1.38,0,0,0,1.391,1.366l10.214-.006a1.384,1.384,0,0,0,1.389-1.37l0-3.905A.538.538,0,0,0,132.651,565.682Z" transform="translate(-119.289 -556.814)"/>
</svg>
